<svg width="1200" height="520" viewBox="0 0 1200 520" fill="none" xmlns="http://www.w3.org/2000/svg">
  <defs>
    <linearGradient id="panel" x1="0" y1="0" x2="1200" y2="520" gradientUnits="userSpaceOnUse">
      <stop stop-color="#060813"/>
      <stop offset="1" stop-color="#10172A"/>
    </linearGradient>
    <linearGradient id="accent" x1="70" y1="0" x2="1130" y2="0" gradientUnits="userSpaceOnUse">
      <stop stop-color="#00F5FF"/>
      <stop offset="0.5" stop-color="#7C3AED"/>
      <stop offset="1" stop-color="#FF3D9A"/>
    </linearGradient>
  </defs>

  <rect width="1200" height="520" rx="30" fill="url(#panel)"/>
  <rect x="24" y="24" width="1152" height="472" rx="26" fill="#080B16" stroke="url(#accent)" stroke-opacity="0.55" stroke-width="2"/>

  <text x="70" y="82" fill="#FFFFFF" font-family="Inter,Segoe UI,Arial,sans-serif" font-size="30" font-weight="900">Custom Build Analytics</text>
  <text x="70" y="112" fill="#9EAAD3" font-family="Inter,Segoe UI,Arial,sans-serif" font-size="17">Visual map of the way I learn, build, and improve projects.</text>

  <g transform="translate(70 155)">
    <rect width="315" height="275" rx="22" fill="#0D1326" stroke="#FFFFFF" stroke-opacity="0.1"/>
    <text x="28" y="42" fill="#00F5FF" font-family="Inter,Segoe UI,Arial,sans-serif" font-size="19" font-weight="800">Skill Growth</text>
    <line x1="48" y1="220" x2="272" y2="220" stroke="#FFFFFF" stroke-opacity="0.12"/>
    <line x1="48" y1="164" x2="272" y2="164" stroke="#FFFFFF" stroke-opacity="0.08"/>
    <line x1="48" y1="108" x2="272" y2="108" stroke="#FFFFFF" stroke-opacity="0.08"/>
    <rect x="62" y="145" width="26" height="75" rx="8" fill="#00F5FF">
      <animate attributeName="height" values="50;105;75;92;50" dur="4s" repeatCount="indefinite"/>
      <animate attributeName="y" values="170;115;145;128;170" dur="4s" repeatCount="indefinite"/>
    </rect>
    <rect x="112" y="112" width="26" height="108" rx="8" fill="#7C3AED">
      <animate attributeName="height" values="90;130;80;108;90" dur="4.3s" repeatCount="indefinite"/>
      <animate attributeName="y" values="130;90;140;112;130" dur="4.3s" repeatCount="indefinite"/>
    </rect>
    <rect x="162" y="82" width="26" height="138" rx="8" fill="#FF3D9A">
      <animate attributeName="height" values="118;150;98;138;118" dur="4.6s" repeatCount="indefinite"/>
      <animate attributeName="y" values="102;70;122;82;102" dur="4.6s" repeatCount="indefinite"/>
    </rect>
    <rect x="212" y="126" width="26" height="94" rx="8" fill="#38FFB3">
      <animate attributeName="height" values="62;118;94;132;62" dur="4.9s" repeatCount="indefinite"/>
      <animate attributeName="y" values="158;102;126;88;158" dur="4.9s" repeatCount="indefinite"/>
    </rect>
    <text x="60" y="250" fill="#9EAAD3" font-family="Inter,Segoe UI,Arial,sans-serif" font-size="13">UI</text>
    <text x="104" y="250" fill="#9EAAD3" font-family="Inter,Segoe UI,Arial,sans-serif" font-size="13">JS</text>
    <text x="154" y="250" fill="#9EAAD3" font-family="Inter,Segoe UI,Arial,sans-serif" font-size="13">React</text>
    <text x="208" y="250" fill="#9EAAD3" font-family="Inter,Segoe UI,Arial,sans-serif" font-size="13">Logic</text>
  </g>

  <g transform="translate(442 155)">
    <rect width="315" height="275" rx="22" fill="#0D1326" stroke="#FFFFFF" stroke-opacity="0.1"/>
    <text x="28" y="42" fill="#00F5FF" font-family="Inter,Segoe UI,Arial,sans-serif" font-size="19" font-weight="800">Project Flow</text>
    <polyline points="42,204 90,168 138,180 186,110 234,132 282,74" fill="none" stroke="#00F5FF" stroke-width="5" stroke-linecap="round" stroke-linejoin="round">
      <animate attributeName="points" dur="5s" repeatCount="indefinite"
        values="42,204 90,168 138,180 186,110 234,132 282,74;42,180 90,198 138,136 186,154 234,92 282,116;42,204 90,168 138,180 186,110 234,132 282,74"/>
    </polyline>
    <circle cx="42" cy="204" r="7" fill="#FF3D9A"/>
    <circle cx="90" cy="168" r="7" fill="#FF3D9A"/>
    <circle cx="138" cy="180" r="7" fill="#FF3D9A"/>
    <circle cx="186" cy="110" r="7" fill="#FF3D9A"/>
    <circle cx="234" cy="132" r="7" fill="#FF3D9A"/>
    <circle cx="282" cy="74" r="7" fill="#FF3D9A"/>
    <text x="42" y="244" fill="#9EAAD3" font-family="Inter,Segoe UI,Arial,sans-serif" font-size="13">idea</text>
    <text x="125" y="244" fill="#9EAAD3" font-family="Inter,Segoe UI,Arial,sans-serif" font-size="13">build</text>
    <text x="218" y="244" fill="#9EAAD3" font-family="Inter,Segoe UI,Arial,sans-serif" font-size="13">ship</text>
  </g>

  <g transform="translate(814 155)">
    <rect width="315" height="275" rx="22" fill="#0D1326" stroke="#FFFFFF" stroke-opacity="0.1"/>
    <text x="28" y="42" fill="#00F5FF" font-family="Inter,Segoe UI,Arial,sans-serif" font-size="19" font-weight="800">Build Radar</text>
    <polygon points="157,76 238,135 207,230 107,230 76,135" fill="none" stroke="#FFFFFF" stroke-opacity="0.12"/>
    <polygon points="157,102 214,143 193,210 121,210 100,143" fill="none" stroke="#FFFFFF" stroke-opacity="0.12"/>
    <polygon points="157,88 226,134 196,216 116,205 88,130" fill="#7C3AED" fill-opacity="0.35" stroke="#00F5FF" stroke-width="3">
      <animate attributeName="points" dur="5s" repeatCount="indefinite"
        values="157,88 226,134 196,216 116,205 88,130;157,76 238,150 182,230 104,196 102,116;157,88 226,134 196,216 116,205 88,130"/>
    </polygon>
    <text x="139" y="66" fill="#EAF2FF" font-family="Inter,Segoe UI,Arial,sans-serif" font-size="13">UI</text>
    <text x="246" y="137" fill="#EAF2FF" font-family="Inter,Segoe UI,Arial,sans-serif" font-size="13">Code</text>
    <text x="203" y="252" fill="#EAF2FF" font-family="Inter,Segoe UI,Arial,sans-serif" font-size="13">Logic</text>
    <text x="82" y="252" fill="#EAF2FF" font-family="Inter,Segoe UI,Arial,sans-serif" font-size="13">Polish</text>
    <text x="42" y="137" fill="#EAF2FF" font-family="Inter,Segoe UI,Arial,sans-serif" font-size="13">Learn</text>
  </g>
</svg>
